<?xml version="1.0" encoding="UTF-8"?>
<svg id="Layer_1" data-name="Layer 1" xmlns="http://www.w3.org/2000/svg" xmlns:xlink="http://www.w3.org/1999/xlink" viewBox="0 0 80 80">
  <defs>
    <style>
      .cls-1, .cls-2 {
        fill: none;
      }

      .cls-1, .cls-3 {
        stroke-linecap: round;
        stroke-linejoin: round;
      }

      .cls-1, .cls-3, .cls-4 {
        stroke: #fff;
      }

      .cls-5 {
        clip-path: url(#clippath);
      }

      .cls-2 {
        stroke-width: 0px;
      }

      .cls-3 {
        fill: #202020;
      }

      .cls-3, .cls-4 {
        fill-rule: evenodd;
      }

      .cls-4 {
        fill: #a100ff;
      }
    </style>
    <clipPath id="clippath">
      <rect class="cls-2" width="80" height="80"/>
    </clipPath>
  </defs>
  <g class="cls-5">
    <g>
      <path vector-effect="non-scaling-stroke" class="cls-3" d="m40.09,65.87H13.13c-.67,0-1.35-.68-1.35-1.35v-14.87C4.59,45.15,1,37.94,1,28.26,1,12.94,12.91,1,27.96,1c12.58,0,25.84,8.56,25.84,22.75,0,.45,1.12,2.48,1.8,3.83,2.02,3.38,4.04,7.21,3.82,10.14v.45c0,.45,0,1.35-.45,2.03-.45.9-1.57,1.35-2.47,1.35h-2.92c0,3.15-.22,10.14-2.47,12.39-2.02,2.03-4.94,2.48-9.66,2.48v8.11c0,.68-.67,1.35-1.35,1.35Z"/>
      <path vector-effect="non-scaling-stroke" class="cls-1" d="m59.66,79h-26.96c-.67,0-1.35-.68-1.35-1.35v-14.87c-7.19-4.5-10.78-11.71-10.78-21.4,0-15.32,11.91-27.26,26.96-27.26,12.58,0,25.84,8.56,25.84,22.75,0,.45,1.12,2.48,1.8,3.83,2.02,3.38,4.04,7.21,3.82,10.14v.45c0,.45,0,1.35-.45,2.03-.45.9-1.57,1.35-2.47,1.35h-2.92c0,3.15-.22,10.14-2.47,12.39-2.02,2.03-4.94,2.48-9.66,2.48v8.11c0,.68-.67,1.35-1.35,1.35h0Z"/>
      <path vector-effect="non-scaling-stroke" class="cls-4" d="m20.57,41.38c0,9.69,3.59,16.89,10.78,21.4v3.09h8.74c.67,0,1.35-.68,1.35-1.35v-8.11c4.72,0,7.64-.45,9.66-2.48,2.25-2.25,2.47-9.24,2.47-12.39h2.92c.9,0,2.02-.45,2.47-1.35.45-.68.45-1.58.45-2.03v-.45c.22-2.93-1.8-6.76-3.82-10.14-.67-1.35-1.8-3.38-1.8-3.83,0-3.45-.79-6.57-2.16-9.32-1.37-.2-2.74-.31-4.11-.31-15.05,0-26.96,11.94-26.96,27.26h0Z"/>
    </g>
  </g>
</svg>