<svg xmlns="http://www.w3.org/2000/svg" width="78" height="76" viewBox="0 0 78 76" fill="none"><path d="M64.7713 31.5626C64.1919 32.0909 62.8154 33.6661 61.6885 35.1461L59.6821 37.7814L56.0484 37.1247C50.9184 36.1841 50.9943 37.3254 56.1419 40.1042L58.0165 41.1323L57.6097 43.2177C57.336 44.6631 57.4471 45.603 57.9528 46.1022C58.6554 46.8082 58.7752 46.7283 60.4518 44.5263L62.2384 42.1798L66.0018 42.8213C70.4436 43.58 71.7464 43.0322 69.5409 41.353C68.7559 40.7553 67.143 39.9264 65.9787 39.4391L63.8468 38.6713L64.3272 37.4974C66.7316 31.8576 66.8965 29.7021 64.7713 31.5626Z" fill="#00A59B"></path><path d="M45.2249 10.9667C44.8665 11.2136 43.8679 12.3014 42.9771 13.4713L41.3626 15.5918L38.9243 15.0636C35.8875 14.4263 34.7113 14.6281 35.1046 15.6783C35.3494 16.3268 37.7982 17.9603 39.6148 18.7081C40.0939 18.8996 40.1554 19.6395 39.8157 21.0557C39.4481 22.5084 39.5177 23.3123 40.0212 23.6956C40.6325 24.1611 40.9631 23.9507 42.4628 22.2049C43.3977 21.1263 44.3012 20.3126 44.481 20.4495C45.1643 20.9698 53.6844 22.8365 54.2702 22.5895C55.8801 21.9672 54.0774 20.3058 49.5615 18.2536C45.5966 16.4476 45.5966 16.4476 46.3283 13.7705C46.9649 11.3675 46.4916 10.1985 45.2249 10.9667Z" fill="#00A59B"></path><path d="M45.7436 52.5521C45.4047 52.6922 44.1781 53.4645 42.9977 54.3287L40.8012 55.8412L37.063 53.2793C33.9402 51.1291 33.2058 50.7975 32.7118 51.2176C32.1082 51.7817 34.0518 55.252 36.396 57.6625L37.674 59.0336L35.5633 61.8057C33.2334 64.8659 32.7686 65.9338 33.43 66.4374C34.0914 66.941 35.5011 66.0806 38.3548 63.4762C39.6811 62.268 40.9899 61.3877 41.2104 61.5556C42.3495 62.4229 45.001 63.1336 45.3299 62.7016C45.7959 62.0896 45.5282 61.3739 44.2776 59.9667C43.3304 58.8474 43.3578 58.8114 45.175 56.0434C46.9101 53.3834 47.1725 52.0476 45.7436 52.5521Z" fill="#00A59B"></path><path d="M25.5879 27.5125C25.1216 27.7345 24.3017 28.2647 23.7993 28.6902C22.7291 29.5491 21.2088 28.9688 17.8211 26.3894C15.7886 24.8419 14.1848 24.3711 13.5728 25.1749C13.1277 25.7595 14.545 27.6466 17.6544 30.5913C20.0667 32.8897 20.1747 33.6069 18.4974 35.966C16.9772 38.0407 16.5666 39.5173 17.1704 40.2079C17.8971 41.0498 19.5368 39.9895 21.4006 37.5416L22.9028 35.5686L26.7782 38.2883C30.8793 41.1801 32.7646 41.7497 31.4586 39.7164C31.0985 39.096 29.493 37.0655 27.917 35.2307C25.3869 32.1499 25.197 31.7745 25.7812 31.0072C26.6714 29.838 27.2277 27.7798 26.776 27.4359C26.5502 27.2639 26.0265 27.3269 25.5879 27.5125Z" fill="#00A59B"></path></svg>