<svg xmlns="http://www.w3.org/2000/svg" width="101" height="101" viewBox="0 0 101 101" fill="none"><path d="M31.9263 21.4655C32.4592 22.6658 36.1219 27.5887 36.5419 27.6305C36.717 27.6572 36.8997 27.5285 36.9857 27.3179C37.1754 26.9217 33.1471 20.9808 32.3655 20.4809C31.6452 20.0129 31.4471 20.4525 31.9263 21.4655Z" fill="#FFEB1C"></path><path d="M49.798 15.9996C49.3652 17.8028 49.2176 22.1926 49.5293 22.6351C50.2511 23.6599 50.6674 21.8334 50.6989 17.4557C50.7494 15.0507 50.1866 14.1927 49.798 15.9996Z" fill="#FFEB1C"></path><path d="M22.5627 41.1787C22.9972 41.7956 31.8457 43.3665 32.453 42.9388C33.2979 42.3437 32.4871 42.0338 27.4959 41.0603C23.5201 40.2947 21.9702 40.3375 22.5627 41.1787Z" fill="#FFEB1C"></path><path d="M44.0066 33.4076C43.5972 36.5982 43.3367 41.4977 43.4828 44.2566L43.5204 45.1975L37.8472 47.9036C30.9444 51.1935 27.4121 53.2783 26.8587 54.434C26.3528 55.4352 27.0049 56.7494 28.2508 57.2424C29.3613 57.7098 34.459 58.0694 38.9683 58.0373C40.8741 58.0252 42.6185 58.0058 42.844 58.0485C43.0504 58.0643 43.0807 59.4941 42.9187 61.2608C42.2778 67.839 42.449 73.2406 43.3409 74.5069C43.5307 74.7763 43.9079 75.0346 44.2236 75.0944C45.5312 75.3424 46.9012 73.5712 51.5131 65.8084C53.1898 62.9748 54.7381 60.5138 54.9992 60.3299C55.2342 60.1644 56.428 60.2506 57.6572 60.5538C64.5962 62.1962 71.1486 62.9017 72.7746 62.1595C75.051 61.1205 74.4083 60.0415 68.6691 55.0549C63.9881 51.0159 64.1636 51.376 65.992 48.758C67.3716 46.7785 69.3809 42.8642 70.0106 40.9293C70.3908 39.6942 70.3862 39.1331 69.9688 38.5403C69.2097 37.4626 68.2912 37.5453 63.6555 39.1174C56.4041 41.5242 55.8725 41.6569 54.9898 41.0693C54.4844 40.7401 52.85 38.586 50.3902 35.0382C46.8441 29.8371 46.5713 29.5052 45.8356 29.4591C45.3965 29.4459 44.9171 29.5417 44.7865 29.6337C44.6298 29.7441 44.2684 31.4497 44.0066 33.4076ZM50.114 37.5303L53.8903 42.8918L55.1575 43.2488C56.4437 43.6327 58.1171 43.1796 65.2142 40.7202C66.6882 40.206 67.9913 39.8928 68.1574 40.0177C68.3234 40.1426 67.5799 41.9158 66.4708 43.9465C65.3807 46.0042 64.065 48.4626 63.5472 49.3916C62.317 51.7495 62.5612 52.2627 66.3692 55.5059C71.0123 59.491 71.5413 59.9648 71.4724 60.2552C71.3868 60.7992 69.4194 60.6129 62.7769 59.4469C59.1815 58.8352 55.7784 58.33 55.2231 58.3181C53.7753 58.3704 53.1176 59.1561 49.4225 65.2252C46.112 70.6203 45.1218 72.0433 44.8751 71.693C44.5525 71.235 44.5922 66.8539 44.9759 62.3512C45.2501 59.135 45.246 57.2434 44.9424 56.8123C44.3921 56.031 43.2126 55.8541 37.7873 55.8058C35.4045 55.7509 32.4996 55.6203 31.294 55.4617L29.1534 55.1959L30.5184 54.1941C31.2757 53.6608 34.739 51.8663 38.1999 50.2348C41.6608 48.6033 44.5972 47.0591 44.7492 46.8311C44.894 46.6485 45.2347 43.3049 45.4924 39.4553C45.7312 35.5788 46.0243 32.3896 46.1288 32.316C46.2594 32.224 48.0456 34.5936 50.114 37.5303Z" fill="#FFEB1C"></path><path d="M63.3575 25.1743C60.8347 29.756 60.5717 30.4672 61.4086 30.2283C62.2022 29.9849 67.0139 21.2316 66.6508 20.716C66.2877 20.2005 65.4767 21.3326 63.3575 25.1743Z" fill="#FFEB1C"></path><path d="M12.9623 60.2642C13.4704 60.6249 20.552 59.0186 21.4575 58.3808C22.8157 57.4242 21.3362 57.3672 17.6058 58.2617C13.6741 59.1711 12.25 59.7938 12.9623 60.2642Z" fill="#FFEB1C"></path><path d="M30.8275 68.4537C28.6289 71.6339 28.0315 72.6763 28.1709 73.1608C28.2633 73.4065 28.5166 73.4224 28.8133 73.2134C29.5771 72.6366 33.7289 66.0993 33.6077 65.6408C33.422 65.0334 32.6234 65.7902 30.8275 68.4537Z" fill="#FFEB1C"></path><path d="M74.8076 37.8056C74.5596 38.0363 74.4193 38.3035 74.4854 38.3972C74.6967 38.6973 76.6794 37.6654 79.9824 35.5354C82.8331 33.6959 83.2589 33.3679 83.074 33.1054C82.8627 32.8054 82.0568 33.1766 78.9469 35.1145C77.8646 35.7927 76.577 36.5874 76.0841 36.8784C75.6186 37.1502 75.0149 37.5754 74.8076 37.8056Z" fill="#FFEB1C"></path><path d="M76.84 50.4818C77.1856 50.9725 85.6478 51.6561 86.2158 51.2561C86.364 51.1517 86.4183 50.9666 86.3492 50.8685C86.1419 50.574 83.038 50.154 79.9983 49.9825C77.4525 49.8301 76.4944 49.9911 76.84 50.4818Z" fill="#FFEB1C"></path><path d="M42.8018 80.8457C42.3166 81.9098 40.9763 86.0875 40.9547 86.5498C40.9074 87.0304 41.2637 87.5363 41.5215 87.3546C41.9342 87.064 44.0277 80.395 43.8009 80.0731C43.4932 79.6363 43.2353 79.8179 42.8018 80.8457Z" fill="#FFEB1C"></path><path d="M62.7637 74.1807C65.4454 78.1437 66.7455 79.5229 66.8929 78.5394C67.0223 77.5303 62.1981 71.2516 61.5877 71.6815C61.3192 71.8706 61.6061 72.4335 62.7637 74.1807Z" fill="#FFEB1C"></path><path d="M76.4184 62.9703C76.4335 63.2185 78.178 64.4485 80.3251 65.74C84.0606 67.9833 85.5399 68.6667 86.0201 68.3285C86.5004 67.9902 85.4492 67.1778 81.8355 65.1075C77.9121 62.8241 76.3261 62.2158 76.4184 62.9703Z" fill="#FFEB1C"></path></svg>