<svg xmlns="http://www.w3.org/2000/svg" xmlns:xlink="http://www.w3.org/1999/xlink" width="123.815" height="123.815" viewBox="0 0 123.815 123.815">
  <defs>
    <filter id="Rectangle_1119" x="0" y="0" width="123.815" height="123.815" filterUnits="userSpaceOnUse">
      <feOffset input="SourceAlpha"/>
      <feGaussianBlur stdDeviation="8" result="blur"/>
      <feFlood flood-color="#49fd98" flood-opacity="0.584"/>
      <feComposite operator="in" in2="blur"/>
      <feComposite in="SourceGraphic"/>
    </filter>
    <linearGradient id="linear-gradient" x1="0.519" y1="0.016" x2="0.534" y2="1" gradientUnits="objectBoundingBox">
      <stop offset="0" stop-color="#7a7cb4"/>
      <stop offset="1" stop-color="#2c2e5a"/>
    </linearGradient>
  </defs>
  <g id="Group_29218" data-name="Group 29218" transform="translate(-459.592 -1702.592)">
    <g id="Group_10103" data-name="Group 10103" transform="translate(483 1726)">
      <g id="Group_2413" data-name="Group 2413">
        <g transform="matrix(1, 0, 0, 1, -23.41, -23.41)" filter="url(#Rectangle_1119)">
          <rect id="Rectangle_1119-2" data-name="Rectangle 1119" width="75.815" height="75.815" rx="13" transform="translate(24 24)" fill="#1f2042"/>
        </g>
        <path id="Path_678" data-name="Path 678" d="M15.492-.5H60.508A15.992,15.992,0,0,1,76.5,15.492V60.508A15.992,15.992,0,0,1,60.508,76.5H15.492A15.992,15.992,0,0,1-.5,60.508V15.492A15.992,15.992,0,0,1,15.492-.5ZM60.508,75.315A14.808,14.808,0,0,0,75.315,60.508V15.492A14.808,14.808,0,0,0,60.508.685H15.492A14.808,14.808,0,0,0,.685,15.492V60.508A14.808,14.808,0,0,0,15.492,75.315Z" transform="translate(0.5 0.5)" fill="url(#linear-gradient)"/>
      </g>
    </g>
    <g id="Group_10105" data-name="Group 10105" transform="translate(500 1742)">
      <path id="Path_4881" data-name="Path 4881" d="M40.478,23.031A18.815,18.815,0,1,1,24.065,4.446a8.384,8.384,0,0,0-1.28,2.468q-.522-.035-1.046-.037A16.066,16.066,0,0,0,9.725,12.246c1.725,1.256,5.248,4.34,4.216,7.951a3.22,3.22,0,0,0,.208,2.571,5.28,5.28,0,0,0,2.934,2.04c.16.052,2.834.969,3.421,3.093.343,1.242-.09,2.578-1.285,3.971a9.8,9.8,0,0,1-4.394,3.073c-.985.383-1.543.6-1.868,1.637a16.132,16.132,0,0,0,21.577-3.691c.078-.1.144-.207.219-.309-.458-2.649-1.286-2.972-2.228-3.334a4.236,4.236,0,0,1-1.615-.947,10.376,10.376,0,0,1-1.416-1.983A9.746,9.746,0,0,0,25.358,22.1l-.472-.235c-3.345-1.659-5.363-2.66-3.457-8.365a6.984,6.984,0,0,1,1.2-2.2c.572,2.426,2.181,5.537,4.815,9.288a4.09,4.09,0,0,0,6.689,0,39.421,39.421,0,0,0,3.942-6.736,18.7,18.7,0,0,1,2.408,9.178ZM29.027,19.477c-1.913-2.726-4.7-7.185-4.7-10.016a6.462,6.462,0,1,1,12.923,0c0,2.831-2.79,7.289-4.7,10.016a2.15,2.15,0,0,1-3.516,0Zm1.758-6.785a3.231,3.231,0,1,0-3.231-3.231,3.231,3.231,0,0,0,3.231,3.231Z" transform="translate(0)" fill="#47fe97"/>
    </g>
  </g>
</svg>
